<svg xmlns="http://www.w3.org/2000/svg" xmlns:xlink="http://www.w3.org/1999/xlink" width="50" zoomAndPan="magnify" viewBox="0 0 37.5 37.499999" height="50" preserveAspectRatio="xMidYMid meet" version="1.0"><defs><clipPath id="32584224f4"><path d="M 22 21 L 33 21 L 33 37.007812 L 22 37.007812 Z M 22 21 " clip-rule="nonzero"/></clipPath><clipPath id="60a9ea8dad"><path d="M 3.75 0 L 33 0 L 33 33 L 3.75 33 Z M 3.75 0 " clip-rule="nonzero"/></clipPath></defs><g clip-path="url(#32584224f4)"><path fill="#e8b17e" d="M 23.09375 21.609375 C 23.230469 21.53125 23.375 21.480469 23.53125 21.460938 C 23.6875 21.441406 23.839844 21.449219 23.992188 21.492188 C 24.140625 21.53125 24.28125 21.597656 24.40625 21.695312 C 24.53125 21.789062 24.632812 21.90625 24.710938 22.039062 L 32.390625 35.300781 C 32.46875 35.433594 32.515625 35.578125 32.539062 35.734375 C 32.558594 35.890625 32.546875 36.042969 32.507812 36.195312 C 32.46875 36.34375 32.398438 36.484375 32.304688 36.605469 C 32.207031 36.730469 32.09375 36.832031 31.957031 36.910156 C 31.820312 36.988281 31.675781 37.039062 31.519531 37.058594 C 31.363281 37.078125 31.210938 37.070312 31.058594 37.027344 C 30.90625 36.988281 30.769531 36.917969 30.644531 36.824219 C 30.519531 36.730469 30.417969 36.613281 30.339844 36.480469 L 22.660156 23.21875 C 22.582031 23.082031 22.53125 22.9375 22.511719 22.785156 C 22.492188 22.628906 22.5 22.476562 22.542969 22.324219 C 22.582031 22.171875 22.652344 22.035156 22.746094 21.910156 C 22.839844 21.789062 22.957031 21.6875 23.09375 21.609375 Z M 23.09375 21.609375 " fill-opacity="1" fill-rule="nonzero"/></g><path fill="#f2b4c7" d="M 14.761719 1.757812 C 11.175781 2.84375 8.019531 5.445312 6.5 8.886719 C 4.125 14.277344 6.429688 20.695312 11.804688 23.222656 C 15.339844 24.886719 19.667969 24.605469 23.082031 22.707031 C 25.1875 21.535156 26.96875 19.765625 28.019531 17.609375 C 29.269531 15.03125 29.417969 11.953125 28.480469 9.246094 C 26.570312 3.730469 20.539062 0.328125 14.824219 1.726562 Z M 14.761719 1.757812 " fill-opacity="1" fill-rule="nonzero"/><g clip-path="url(#60a9ea8dad)"><path stroke-linecap="butt" transform="matrix(0.101131, 0, 0, 0.100806, 5.263418, 1.108871)" fill="none" stroke-linejoin="miter" d="M 93.921154 6.437502 C 58.462665 17.210003 27.253015 43.017505 12.227577 77.156258 C -11.256912 130.631263 11.532313 194.297519 64.68142 219.368771 C 99.637773 235.876273 142.435164 233.086273 176.194117 214.253771 C 197.013426 202.62877 214.626793 185.075018 225.017134 163.685016 C 237.377392 138.110014 238.845172 107.575011 229.574979 80.721259 C 210.686961 26.006253 151.048719 -7.745 94.539167 6.127502 Z M 93.921154 6.437502 " stroke="#f38c9f" stroke-width="6.02" stroke-opacity="1" stroke-miterlimit="10"/></g><path fill="#f38c9f" d="M 15.238281 2.152344 C 14.535156 2.25 13.859375 2.429688 13.207031 2.699219 C 12.554688 2.96875 11.953125 3.324219 11.402344 3.761719 C 10.296875 4.65625 9.476562 5.761719 8.945312 7.078125 C 8.417969 8.378906 8.175781 9.734375 8.214844 11.136719 C 8.253906 12.539062 8.574219 13.875 9.171875 15.144531 C 9.761719 16.40625 10.613281 17.460938 11.726562 18.304688 C 12.546875 18.929688 13.457031 19.371094 14.457031 19.628906 C 15.457031 19.890625 16.464844 19.949219 17.488281 19.808594 C 18.160156 19.714844 18.808594 19.53125 19.433594 19.269531 C 20.058594 19.003906 20.640625 18.664062 21.175781 18.25 C 21.441406 18.042969 21.695312 17.824219 21.933594 17.585938 C 22.171875 17.355469 22.386719 17.105469 22.578125 16.835938 C 23.371094 15.726562 23.761719 14.492188 23.742188 13.128906 C 23.742188 11.777344 23.367188 10.539062 22.621094 9.410156 C 22.261719 8.871094 21.824219 8.40625 21.304688 8.015625 C 20.789062 7.632812 20.222656 7.367188 19.601562 7.210938 C 18.976562 7.054688 18.34375 7.019531 17.703125 7.101562 C 17.621094 7.109375 17.542969 7.121094 17.460938 7.136719 C 17.382812 7.148438 17.300781 7.160156 17.226562 7.175781 C 17.074219 7.207031 16.925781 7.246094 16.777344 7.296875 C 16.480469 7.398438 16.195312 7.527344 15.925781 7.691406 C 14.832031 8.328125 14 9.449219 13.757812 10.683594 C 13.695312 10.992188 13.671875 11.300781 13.691406 11.613281 C 13.714844 11.921875 13.78125 12.21875 13.894531 12.507812 C 14.136719 13.105469 14.515625 13.597656 15.039062 13.980469 C 15.566406 14.371094 16.160156 14.589844 16.816406 14.640625 C 17.484375 14.6875 18.109375 14.542969 18.6875 14.199219 C 19.285156 13.84375 19.75 13.359375 20.082031 12.75 C 20.414062 12.136719 20.570312 11.488281 20.546875 10.792969 C 20.546875 10.757812 20.5625 10.738281 20.597656 10.738281 C 20.628906 10.734375 20.648438 10.75 20.65625 10.78125 C 20.714844 11.140625 20.71875 11.503906 20.667969 11.863281 C 20.613281 12.230469 20.515625 12.582031 20.363281 12.917969 C 20.058594 13.621094 19.589844 14.191406 18.960938 14.632812 C 18.644531 14.851562 18.300781 15.015625 17.933594 15.132812 C 17.167969 15.363281 16.40625 15.359375 15.644531 15.121094 C 15.269531 15.007812 14.917969 14.839844 14.589844 14.625 C 14.261719 14.410156 13.964844 14.152344 13.707031 13.855469 C 13.449219 13.554688 13.234375 13.222656 13.070312 12.859375 C 12.910156 12.492188 12.804688 12.105469 12.757812 11.707031 C 12.714844 11.308594 12.726562 10.914062 12.789062 10.523438 C 12.917969 9.738281 13.207031 9.019531 13.65625 8.367188 C 13.878906 8.042969 14.128906 7.746094 14.410156 7.476562 C 14.691406 7.199219 14.996094 6.957031 15.328125 6.746094 C 15.667969 6.539062 16.023438 6.363281 16.398438 6.230469 C 16.585938 6.164062 16.777344 6.109375 16.972656 6.066406 C 17.074219 6.042969 17.164062 6.027344 17.261719 6.011719 C 17.355469 5.992188 17.449219 5.980469 17.546875 5.96875 C 18.328125 5.859375 19.105469 5.902344 19.871094 6.089844 C 20.644531 6.289062 21.34375 6.625 21.976562 7.109375 C 22.597656 7.585938 23.113281 8.152344 23.53125 8.8125 C 24.359375 10.136719 24.753906 11.578125 24.71875 13.140625 C 24.707031 13.898438 24.578125 14.640625 24.339844 15.363281 C 23.972656 16.460938 23.371094 17.410156 22.53125 18.207031 C 22.257812 18.464844 21.976562 18.703125 21.675781 18.925781 C 21.074219 19.371094 20.425781 19.730469 19.734375 20.011719 C 19.042969 20.289062 18.328125 20.472656 17.585938 20.558594 C 16.847656 20.648438 16.109375 20.640625 15.371094 20.535156 C 14.632812 20.429688 13.921875 20.230469 13.234375 19.9375 C 12.550781 19.644531 11.917969 19.269531 11.332031 18.808594 C 10.160156 17.882812 9.269531 16.738281 8.664062 15.375 C 8.070312 14.03125 7.769531 12.628906 7.761719 11.164062 C 7.757812 9.699219 8.042969 8.292969 8.628906 6.945312 C 9.210938 5.59375 10.085938 4.472656 11.257812 3.578125 C 11.835938 3.144531 12.464844 2.796875 13.140625 2.539062 C 13.8125 2.285156 14.507812 2.121094 15.222656 2.042969 C 15.257812 2.039062 15.28125 2.054688 15.285156 2.09375 C 15.289062 2.128906 15.273438 2.148438 15.238281 2.152344 Z M 15.238281 2.152344 " fill-opacity="1" fill-rule="nonzero"/><path fill="#ffffff" d="M 15.585938 1.9375 C 14.738281 2.046875 13.925781 2.269531 13.140625 2.613281 C 12.359375 2.957031 11.652344 3.410156 11.011719 3.972656 C 9.738281 5.085938 8.832031 6.574219 8.324219 8.175781 C 7.816406 9.808594 7.6875 11.464844 7.941406 13.152344 C 8.1875 14.835938 8.800781 16.375 9.785156 17.761719 C 10.773438 19.148438 12.054688 20.171875 13.625 20.828125 C 14.789062 21.308594 15.996094 21.527344 17.253906 21.484375 C 18.507812 21.4375 19.699219 21.128906 20.820312 20.566406 C 21.558594 20.1875 22.234375 19.722656 22.84375 19.160156 C 24.054688 18.0625 24.851562 16.558594 25.214844 14.964844 C 25.59375 13.335938 25.539062 11.722656 25.050781 10.125 C 24.8125 9.347656 24.457031 8.628906 23.984375 7.964844 C 23.519531 7.304688 22.949219 6.753906 22.273438 6.3125 C 21.597656 5.875 20.867188 5.570312 20.078125 5.398438 C 19.683594 5.308594 19.285156 5.246094 18.882812 5.21875 C 18.476562 5.195312 18.070312 5.191406 17.664062 5.210938 C 17.460938 5.226562 17.25 5.234375 17.054688 5.261719 C 16.859375 5.285156 16.664062 5.320312 16.472656 5.363281 C 16.082031 5.453125 15.703125 5.582031 15.339844 5.746094 C 14.601562 6.058594 13.957031 6.507812 13.40625 7.09375 C 12.863281 7.683594 12.480469 8.363281 12.253906 9.132812 C 12.144531 9.519531 12.070312 9.910156 12.03125 10.308594 L 12.015625 10.460938 L 12.011719 10.613281 C 12.011719 10.710938 11.996094 10.8125 12 10.914062 L 12 11.214844 C 12 11.316406 12.003906 11.417969 12.015625 11.519531 C 12.078125 12.328125 12.304688 13.089844 12.695312 13.800781 C 13.078125 14.519531 13.621094 15.082031 14.320312 15.496094 C 14.667969 15.695312 15.039062 15.835938 15.433594 15.925781 C 15.828125 16.011719 16.230469 16.050781 16.636719 16.042969 C 17.046875 16.03125 17.457031 15.984375 17.859375 15.894531 C 18.058594 15.855469 18.25 15.800781 18.4375 15.730469 C 18.628906 15.660156 18.8125 15.574219 18.988281 15.476562 C 19.726562 15.0625 20.320312 14.503906 20.773438 13.796875 C 21.003906 13.445312 21.175781 13.070312 21.296875 12.667969 C 21.425781 12.265625 21.476562 11.851562 21.453125 11.429688 C 21.453125 11.402344 21.464844 11.386719 21.496094 11.382812 C 21.523438 11.382812 21.539062 11.394531 21.542969 11.421875 C 21.605469 11.859375 21.582031 12.289062 21.484375 12.71875 C 21.382812 13.144531 21.222656 13.550781 21.007812 13.933594 C 20.566406 14.71875 19.96875 15.355469 19.207031 15.839844 C 19.015625 15.960938 18.820312 16.0625 18.613281 16.152344 C 18.40625 16.242188 18.191406 16.316406 17.96875 16.371094 C 17.539062 16.484375 17.101562 16.550781 16.65625 16.582031 C 16.199219 16.621094 15.742188 16.59375 15.292969 16.5 C 14.839844 16.410156 14.414062 16.253906 14.007812 16.039062 C 13.601562 15.824219 13.234375 15.554688 12.90625 15.234375 C 12.578125 14.914062 12.300781 14.550781 12.078125 14.148438 C 11.621094 13.355469 11.339844 12.503906 11.246094 11.59375 C 11.230469 11.480469 11.226562 11.367188 11.21875 11.253906 L 11.210938 10.917969 C 11.210938 10.808594 11.210938 10.695312 11.210938 10.582031 L 11.210938 10.414062 L 11.230469 10.242188 C 11.261719 9.789062 11.335938 9.34375 11.457031 8.90625 C 11.703125 8.007812 12.136719 7.207031 12.757812 6.511719 C 13.992188 5.136719 15.800781 4.367188 17.613281 4.277344 C 18.515625 4.21875 19.410156 4.285156 20.292969 4.480469 C 21.195312 4.675781 22.027344 5.03125 22.792969 5.542969 C 23.558594 6.058594 24.203125 6.691406 24.726562 7.449219 C 25.242188 8.195312 25.625 9.007812 25.875 9.878906 C 26.125 10.738281 26.253906 11.617188 26.265625 12.511719 C 26.28125 13.402344 26.179688 14.28125 25.96875 15.144531 C 25.757812 16.011719 25.429688 16.835938 24.988281 17.613281 C 24.542969 18.394531 23.984375 19.082031 23.3125 19.679688 C 22.648438 20.277344 21.917969 20.769531 21.117188 21.160156 C 19.90625 21.75 18.628906 22.0625 17.28125 22.09375 C 15.9375 22.125 14.644531 21.875 13.410156 21.34375 C 11.753906 20.625 10.414062 19.523438 9.390625 18.042969 C 8.382812 16.582031 7.769531 14.96875 7.554688 13.207031 C 7.324219 11.460938 7.488281 9.753906 8.046875 8.082031 C 8.601562 6.453125 9.5625 4.941406 10.886719 3.832031 C 11.546875 3.269531 12.28125 2.820312 13.085938 2.484375 C 13.886719 2.152344 14.714844 1.9375 15.578125 1.847656 C 15.609375 1.84375 15.625 1.855469 15.628906 1.886719 C 15.632812 1.917969 15.617188 1.933594 15.585938 1.9375 Z M 15.585938 1.9375 " fill-opacity="1" fill-rule="nonzero"/></svg>